<svg x="-11" y="-8" width="1060.000000" height="29.000000">
    <rect x="0.056363" y="0.000000" width="10.060873" height="10.000000" fill="#d38d5f" stroke-width="0"/>
    <rect x="10.117236" y="0.000000" width="9.271784" height="10.000000" fill="#ffdd55" stroke-width="0"/>
    <rect x="19.389020" y="0.000000" width="9.159058" height="10.000000" fill="#ffdd55" stroke-width="0"/>
    <rect x="28.548078" y="0.000000" width="9.130876" height="10.000000" fill="#ffdd55" stroke-width="0"/>
    <rect x="37.678954" y="0.000000" width="9.187239" height="10.000000" fill="#ffdd55" stroke-width="0"/>
    <rect x="46.866193" y="0.000000" width="8.708150" height="10.000000" fill="#ffdd55" stroke-width="0"/>
    <rect x="55.574343" y="0.000000" width="8.031789" height="10.000000" fill="#ffdd55" stroke-width="0"/>
    <rect x="63.606132" y="0.000000" width="8.003607" height="10.000000" fill="#ffdd55" stroke-width="0"/>
    <rect x="71.609740" y="0.000000" width="8.031789" height="10.000000" fill="#ffdd55" stroke-width="0"/>
    <rect x="79.641529" y="0.000000" width="8.031789" height="10.000000" fill="#ffdd55" stroke-width="0"/>
    <rect x="87.673318" y="0.000000" width="8.059971" height="10.000000" fill="#ffdd55" stroke-width="0"/>
    <rect x="95.733288" y="0.000000" width="8.003607" height="10.000000" fill="#ffdd55" stroke-width="0"/>
    <rect x="103.765077" y="0.000000" width="8.031789" height="10.000000" fill="#ffdd55" stroke-width="0"/>
    <rect x="111.825048" y="0.000000" width="8.144516" height="10.000000" fill="#ffdd55" stroke-width="0"/>
    <rect x="119.969564" y="0.000000" width="8.172698" height="10.000000" fill="#ffdd55" stroke-width="0"/>
    <rect x="128.142261" y="0.000000" width="8.059971" height="10.000000" fill="#ffdd55" stroke-width="0"/>
    <rect x="136.230414" y="0.000000" width="8.116334" height="10.000000" fill="#ffdd55" stroke-width="0"/>
    <rect x="144.346748" y="0.000000" width="8.144516" height="10.000000" fill="#ffdd55" stroke-width="0"/>
    <rect x="152.491264" y="0.000000" width="8.088152" height="10.000000" fill="#ffdd55" stroke-width="0"/>
    <rect x="160.579416" y="0.000000" width="8.989967" height="10.000000" fill="#ffdd55" stroke-width="0"/>
    <rect x="169.569383" y="0.000000" width="9.384511" height="10.000000" fill="#d38d5f" stroke-width="0"/>
    <rect x="178.953895" y="0.000000" width="7.975426" height="10.000000" fill="#ffdd55" stroke-width="0"/>
    <rect x="186.929320" y="0.000000" width="7.552700" height="10.000000" fill="#ffdd55" stroke-width="0"/>
    <rect x="194.482020" y="0.000000" width="6.848157" height="10.000000" fill="#ffdd55" stroke-width="0"/>
    <rect x="201.330177" y="0.000000" width="6.876339" height="10.000000" fill="#ffdd55" stroke-width="0"/>
    <rect x="208.206516" y="0.000000" width="6.904520" height="10.000000" fill="#ffdd55" stroke-width="0"/>
    <rect x="215.111036" y="0.000000" width="6.932702" height="10.000000" fill="#ffdd55" stroke-width="0"/>
    <rect x="222.043738" y="0.000000" width="6.960884" height="10.000000" fill="#ffdd55" stroke-width="0"/>
    <rect x="229.004622" y="0.000000" width="7.073611" height="10.000000" fill="#ffdd55" stroke-width="0"/>
    <rect x="236.078232" y="0.000000" width="6.904520" height="10.000000" fill="#ffdd55" stroke-width="0"/>
    <rect x="242.982753" y="0.000000" width="6.848157" height="10.000000" fill="#ffdd55" stroke-width="0"/>
    <rect x="249.830910" y="0.000000" width="6.904520" height="10.000000" fill="#ffdd55" stroke-width="0"/>
    <rect x="256.735430" y="0.000000" width="6.876339" height="10.000000" fill="#ffdd55" stroke-width="0"/>
    <rect x="263.611769" y="0.000000" width="6.876339" height="10.000000" fill="#ffdd55" stroke-width="0"/>
    <rect x="270.488107" y="0.000000" width="6.848157" height="10.000000" fill="#ffdd55" stroke-width="0"/>
    <rect x="277.336264" y="0.000000" width="6.876339" height="10.000000" fill="#ffdd55" stroke-width="0"/>
    <rect x="284.212603" y="0.000000" width="6.989065" height="10.000000" fill="#ffdd55" stroke-width="0"/>
    <rect x="291.201668" y="0.000000" width="6.876339" height="10.000000" fill="#ffdd55" stroke-width="0"/>
    <rect x="298.078007" y="0.000000" width="6.848157" height="10.000000" fill="#ffdd55" stroke-width="0"/>
    <rect x="304.926164" y="0.000000" width="5.805433" height="10.000000" fill="#d38d5f" stroke-width="0"/>
    <rect x="310.731597" y="0.000000" width="6.397249" height="10.000000" fill="#ffdd55" stroke-width="0"/>
    <rect x="317.128847" y="0.000000" width="6.397249" height="10.000000" fill="#ffdd55" stroke-width="0"/>
    <rect x="323.554278" y="0.000000" width="6.369068" height="10.000000" fill="#ffdd55" stroke-width="0"/>
    <rect x="329.923346" y="0.000000" width="6.481795" height="10.000000" fill="#ffdd55" stroke-width="0"/>
    <rect x="336.405140" y="0.000000" width="6.002705" height="10.000000" fill="#ffdd55" stroke-width="0"/>
    <rect x="342.407846" y="0.000000" width="6.932702" height="10.000000" fill="#ffdd55" stroke-width="0"/>
    <rect x="349.340548" y="0.000000" width="6.002705" height="10.000000" fill="#ffdd55" stroke-width="0"/>
    <rect x="355.343253" y="0.000000" width="6.002705" height="10.000000" fill="#ffdd55" stroke-width="0"/>
    <rect x="361.345959" y="0.000000" width="5.946342" height="10.000000" fill="#ffdd55" stroke-width="0"/>
    <rect x="367.292301" y="0.000000" width="5.946342" height="10.000000" fill="#ffdd55" stroke-width="0"/>
    <rect x="373.238643" y="0.000000" width="5.946342" height="10.000000" fill="#ffdd55" stroke-width="0"/>
    <rect x="379.184985" y="0.000000" width="5.974524" height="10.000000" fill="#ffdd55" stroke-width="0"/>
    <rect x="385.159509" y="0.000000" width="5.946342" height="10.000000" fill="#ffdd55" stroke-width="0"/>
    <rect x="391.105851" y="0.000000" width="5.946342" height="10.000000" fill="#ffdd55" stroke-width="0"/>
    <rect x="397.052193" y="0.000000" width="5.974524" height="10.000000" fill="#ffdd55" stroke-width="0"/>
    <rect x="403.026716" y="0.000000" width="5.946342" height="10.000000" fill="#ffdd55" stroke-width="0"/>
    <rect x="408.973058" y="0.000000" width="5.946342" height="10.000000" fill="#ffdd55" stroke-width="0"/>
    <rect x="414.919400" y="0.000000" width="4.931800" height="10.000000" fill="#d38d5f" stroke-width="0"/>
    <rect x="419.879382" y="0.000000" width="5.608161" height="10.000000" fill="#ffdd55" stroke-width="0"/>
    <rect x="425.487544" y="0.000000" width="5.608161" height="10.000000" fill="#ffdd55" stroke-width="0"/>
    <rect x="431.095705" y="0.000000" width="5.608161" height="10.000000" fill="#ffdd55" stroke-width="0"/>
    <rect x="436.703867" y="0.000000" width="5.608161" height="10.000000" fill="#ffdd55" stroke-width="0"/>
    <rect x="442.312028" y="0.000000" width="5.608161" height="10.000000" fill="#ffdd55" stroke-width="0"/>
    <rect x="447.920189" y="0.000000" width="5.579980" height="10.000000" fill="#ffdd55" stroke-width="0"/>
    <rect x="453.500169" y="0.000000" width="6.566340" height="10.000000" fill="#ffdd55" stroke-width="0"/>
    <rect x="460.066509" y="0.000000" width="5.551798" height="10.000000" fill="#ffdd55" stroke-width="0"/>
    <rect x="465.618307" y="0.000000" width="5.579980" height="10.000000" fill="#ffdd55" stroke-width="0"/>
    <rect x="471.198287" y="0.000000" width="5.579980" height="10.000000" fill="#ffdd55" stroke-width="0"/>
    <rect x="476.778266" y="0.000000" width="5.551798" height="10.000000" fill="#ffdd55" stroke-width="0"/>
    <rect x="482.330064" y="0.000000" width="5.551798" height="10.000000" fill="#ffdd55" stroke-width="0"/>
    <rect x="487.881862" y="0.000000" width="5.551798" height="10.000000" fill="#ffdd55" stroke-width="0"/>
    <rect x="493.433660" y="0.000000" width="5.579980" height="10.000000" fill="#ffdd55" stroke-width="0"/>
    <rect x="499.013640" y="0.000000" width="5.551798" height="10.000000" fill="#ffdd55" stroke-width="0"/>
    <rect x="504.565438" y="0.000000" width="5.551798" height="10.000000" fill="#ffdd55" stroke-width="0"/>
    <rect x="510.117236" y="0.000000" width="4.649983" height="10.000000" fill="#d38d5f" stroke-width="0"/>
    <rect x="514.767219" y="0.000000" width="5.185436" height="10.000000" fill="#ffdd55" stroke-width="0"/>
    <rect x="519.952655" y="0.000000" width="5.185436" height="10.000000" fill="#ffdd55" stroke-width="0"/>
    <rect x="525.138090" y="0.000000" width="5.241799" height="10.000000" fill="#ffdd55" stroke-width="0"/>
    <rect x="530.379890" y="0.000000" width="5.185436" height="10.000000" fill="#ffdd55" stroke-width="0"/>
    <rect x="535.565325" y="0.000000" width="5.185436" height="10.000000" fill="#ffdd55" stroke-width="0"/>
    <rect x="540.778943" y="0.000000" width="5.213617" height="10.000000" fill="#ffdd55" stroke-width="0"/>
    <rect x="545.992560" y="0.000000" width="5.185436" height="10.000000" fill="#ffdd55" stroke-width="0"/>
    <rect x="551.177996" y="0.000000" width="5.185436" height="10.000000" fill="#ffdd55" stroke-width="0"/>
    <rect x="556.363431" y="0.000000" width="5.213617" height="10.000000" fill="#ffdd55" stroke-width="0"/>
    <rect x="561.577049" y="0.000000" width="5.213617" height="10.000000" fill="#ffdd55" stroke-width="0"/>
    <rect x="566.790666" y="0.000000" width="5.523616" height="10.000000" fill="#ffdd55" stroke-width="0"/>
    <rect x="572.314282" y="0.000000" width="5.072709" height="10.000000" fill="#ffdd55" stroke-width="0"/>
    <rect x="577.386991" y="0.000000" width="5.072709" height="10.000000" fill="#ffdd55" stroke-width="0"/>
    <rect x="582.459700" y="0.000000" width="5.044527" height="10.000000" fill="#ffdd55" stroke-width="0"/>
    <rect x="587.504227" y="0.000000" width="5.100891" height="10.000000" fill="#ffdd55" stroke-width="0"/>
    <rect x="592.605118" y="0.000000" width="4.255439" height="10.000000" fill="#d38d5f" stroke-width="0"/>
    <rect x="596.860557" y="0.000000" width="4.678165" height="10.000000" fill="#ffdd55" stroke-width="0"/>
    <rect x="601.538722" y="0.000000" width="4.734528" height="10.000000" fill="#ffdd55" stroke-width="0"/>
    <rect x="606.273250" y="0.000000" width="4.734528" height="10.000000" fill="#ffdd55" stroke-width="0"/>
    <rect x="611.007778" y="0.000000" width="4.706347" height="10.000000" fill="#ffdd55" stroke-width="0"/>
    <rect x="615.714125" y="0.000000" width="4.734528" height="10.000000" fill="#ffdd55" stroke-width="0"/>
    <rect x="620.448653" y="0.000000" width="4.706347" height="10.000000" fill="#ffdd55" stroke-width="0"/>
    <rect x="625.154999" y="0.000000" width="4.706347" height="10.000000" fill="#ffdd55" stroke-width="0"/>
    <rect x="629.861346" y="0.000000" width="4.734528" height="10.000000" fill="#ffdd55" stroke-width="0"/>
    <rect x="634.595874" y="0.000000" width="4.706347" height="10.000000" fill="#ffdd55" stroke-width="0"/>
    <rect x="639.302221" y="0.000000" width="4.706347" height="10.000000" fill="#ffdd55" stroke-width="0"/>
    <rect x="644.008567" y="0.000000" width="4.734528" height="10.000000" fill="#ffdd55" stroke-width="0"/>
    <rect x="648.743095" y="0.000000" width="4.706347" height="10.000000" fill="#ffdd55" stroke-width="0"/>
    <rect x="653.449442" y="0.000000" width="4.706347" height="10.000000" fill="#ffdd55" stroke-width="0"/>
    <rect x="658.155789" y="0.000000" width="4.734528" height="10.000000" fill="#ffdd55" stroke-width="0"/>
    <rect x="662.890317" y="0.000000" width="3.917258" height="10.000000" fill="#d38d5f" stroke-width="0"/>
    <rect x="666.807575" y="0.000000" width="4.424529" height="10.000000" fill="#ffdd55" stroke-width="0"/>
    <rect x="671.232105" y="0.000000" width="4.424529" height="10.000000" fill="#ffdd55" stroke-width="0"/>
    <rect x="675.656634" y="0.000000" width="4.424529" height="10.000000" fill="#ffdd55" stroke-width="0"/>
    <rect x="680.081163" y="0.000000" width="5.241799" height="10.000000" fill="#ffdd55" stroke-width="0"/>
    <rect x="685.322962" y="0.000000" width="4.424529" height="10.000000" fill="#ffdd55" stroke-width="0"/>
    <rect x="689.747492" y="0.000000" width="4.424529" height="10.000000" fill="#ffdd55" stroke-width="0"/>
    <rect x="694.172021" y="0.000000" width="4.396348" height="10.000000" fill="#ffdd55" stroke-width="0"/>
    <rect x="698.596551" y="0.000000" width="4.396348" height="10.000000" fill="#ffdd55" stroke-width="0"/>
    <rect x="702.992898" y="0.000000" width="4.424529" height="10.000000" fill="#ffdd55" stroke-width="0"/>
    <rect x="707.417428" y="0.000000" width="4.396348" height="10.000000" fill="#ffdd55" stroke-width="0"/>
    <rect x="711.841957" y="0.000000" width="4.396348" height="10.000000" fill="#ffdd55" stroke-width="0"/>
    <rect x="716.238305" y="0.000000" width="4.424529" height="10.000000" fill="#ffdd55" stroke-width="0"/>
    <rect x="720.662834" y="0.000000" width="4.424529" height="10.000000" fill="#ffdd55" stroke-width="0"/>
    <rect x="725.087363" y="0.000000" width="3.663623" height="10.000000" fill="#d38d5f" stroke-width="0"/>
    <rect x="728.750986" y="0.000000" width="4.114530" height="10.000000" fill="#ffdd55" stroke-width="0"/>
    <rect x="732.865517" y="0.000000" width="4.142712" height="10.000000" fill="#ffdd55" stroke-width="0"/>
    <rect x="737.008229" y="0.000000" width="4.142712" height="10.000000" fill="#ffdd55" stroke-width="0"/>
    <rect x="741.150941" y="0.000000" width="4.114530" height="10.000000" fill="#ffdd55" stroke-width="0"/>
    <rect x="745.265472" y="0.000000" width="4.114530" height="10.000000" fill="#ffdd55" stroke-width="0"/>
    <rect x="749.380002" y="0.000000" width="4.114530" height="10.000000" fill="#ffdd55" stroke-width="0"/>
    <rect x="753.494533" y="0.000000" width="4.142712" height="10.000000" fill="#ffdd55" stroke-width="0"/>
    <rect x="757.637245" y="0.000000" width="4.114530" height="10.000000" fill="#ffdd55" stroke-width="0"/>
    <rect x="761.751775" y="0.000000" width="4.114530" height="10.000000" fill="#ffdd55" stroke-width="0"/>
    <rect x="765.866306" y="0.000000" width="4.114530" height="10.000000" fill="#ffdd55" stroke-width="0"/>
    <rect x="769.980836" y="0.000000" width="4.114530" height="10.000000" fill="#ffdd55" stroke-width="0"/>
    <rect x="774.095367" y="0.000000" width="4.114530" height="10.000000" fill="#ffdd55" stroke-width="0"/>
    <rect x="778.209897" y="0.000000" width="3.438169" height="10.000000" fill="#d38d5f" stroke-width="0"/>
    <rect x="781.648067" y="0.000000" width="3.804532" height="10.000000" fill="#ffdd55" stroke-width="0"/>
    <rect x="785.452598" y="0.000000" width="3.804532" height="10.000000" fill="#ffdd55" stroke-width="0"/>
    <rect x="789.257130" y="0.000000" width="3.832713" height="10.000000" fill="#ffdd55" stroke-width="0"/>
    <rect x="793.089843" y="0.000000" width="5.382708" height="10.000000" fill="#ffdd55" stroke-width="0"/>
    <rect x="798.472551" y="0.000000" width="3.832713" height="10.000000" fill="#ffdd55" stroke-width="0"/>
    <rect x="802.305264" y="0.000000" width="3.804532" height="10.000000" fill="#ffdd55" stroke-width="0"/>
    <rect x="806.109796" y="0.000000" width="3.832713" height="10.000000" fill="#ffdd55" stroke-width="0"/>
    <rect x="809.942509" y="0.000000" width="3.804532" height="10.000000" fill="#ffdd55" stroke-width="0"/>
    <rect x="813.747041" y="0.000000" width="3.804532" height="10.000000" fill="#ffdd55" stroke-width="0"/>
    <rect x="817.551573" y="0.000000" width="3.832713" height="10.000000" fill="#ffdd55" stroke-width="0"/>
    <rect x="821.384286" y="0.000000" width="3.804532" height="10.000000" fill="#ffdd55" stroke-width="0"/>
    <rect x="825.188817" y="0.000000" width="3.156352" height="10.000000" fill="#d38d5f" stroke-width="0"/>
    <rect x="828.345170" y="0.000000" width="3.494533" height="10.000000" fill="#ffdd55" stroke-width="0"/>
    <rect x="831.839702" y="0.000000" width="3.466351" height="10.000000" fill="#ffdd55" stroke-width="0"/>
    <rect x="835.334235" y="0.000000" width="3.466351" height="10.000000" fill="#ffdd55" stroke-width="0"/>
    <rect x="838.800586" y="0.000000" width="3.494533" height="10.000000" fill="#ffdd55" stroke-width="0"/>
    <rect x="842.295119" y="0.000000" width="3.494533" height="10.000000" fill="#ffdd55" stroke-width="0"/>
    <rect x="845.789652" y="0.000000" width="3.494533" height="10.000000" fill="#ffdd55" stroke-width="0"/>
    <rect x="849.284184" y="0.000000" width="3.494533" height="10.000000" fill="#ffdd55" stroke-width="0"/>
    <rect x="852.778717" y="0.000000" width="3.494533" height="10.000000" fill="#ffdd55" stroke-width="0"/>
    <rect x="856.273250" y="0.000000" width="3.494533" height="10.000000" fill="#ffdd55" stroke-width="0"/>
    <rect x="859.767783" y="0.000000" width="3.494533" height="10.000000" fill="#ffdd55" stroke-width="0"/>
    <rect x="863.262315" y="0.000000" width="2.902717" height="10.000000" fill="#d38d5f" stroke-width="0"/>
    <rect x="866.165032" y="0.000000" width="3.212716" height="10.000000" fill="#ffdd55" stroke-width="0"/>
    <rect x="869.377748" y="0.000000" width="3.184534" height="10.000000" fill="#ffdd55" stroke-width="0"/>
    <rect x="872.562282" y="0.000000" width="3.212716" height="10.000000" fill="#ffdd55" stroke-width="0"/>
    <rect x="875.774997" y="0.000000" width="3.212716" height="10.000000" fill="#ffdd55" stroke-width="0"/>
    <rect x="878.987713" y="0.000000" width="3.184534" height="10.000000" fill="#ffdd55" stroke-width="0"/>
    <rect x="882.172247" y="0.000000" width="3.325442" height="10.000000" fill="#ffdd55" stroke-width="0"/>
    <rect x="885.497689" y="0.000000" width="3.184534" height="10.000000" fill="#ffdd55" stroke-width="0"/>
    <rect x="888.682223" y="0.000000" width="3.212716" height="10.000000" fill="#ffdd55" stroke-width="0"/>
    <rect x="891.894939" y="0.000000" width="3.184534" height="10.000000" fill="#ffdd55" stroke-width="0"/>
    <rect x="895.079472" y="0.000000" width="2.649081" height="10.000000" fill="#d38d5f" stroke-width="0"/>
    <rect x="897.728554" y="0.000000" width="2.846353" height="10.000000" fill="#ffdd55" stroke-width="0"/>
    <rect x="900.574907" y="0.000000" width="2.874535" height="10.000000" fill="#ffdd55" stroke-width="0"/>
    <rect x="903.449442" y="0.000000" width="2.846353" height="10.000000" fill="#ffdd55" stroke-width="0"/>
    <rect x="906.295795" y="0.000000" width="2.959080" height="10.000000" fill="#ffdd55" stroke-width="0"/>
    <rect x="909.254875" y="0.000000" width="2.846353" height="10.000000" fill="#ffdd55" stroke-width="0"/>
    <rect x="912.101229" y="0.000000" width="2.874535" height="10.000000" fill="#ffdd55" stroke-width="0"/>
    <rect x="914.975764" y="0.000000" width="2.846353" height="10.000000" fill="#ffdd55" stroke-width="0"/>
    <rect x="917.822117" y="0.000000" width="2.874535" height="10.000000" fill="#ffdd55" stroke-width="0"/>
    <rect x="920.696652" y="0.000000" width="2.395446" height="10.000000" fill="#d38d5f" stroke-width="0"/>
    <rect x="923.092098" y="0.000000" width="2.508173" height="10.000000" fill="#ffdd55" stroke-width="0"/>
    <rect x="925.600271" y="0.000000" width="2.536354" height="10.000000" fill="#ffdd55" stroke-width="0"/>
    <rect x="928.136625" y="0.000000" width="2.536354" height="10.000000" fill="#ffdd55" stroke-width="0"/>
    <rect x="930.672979" y="0.000000" width="2.536354" height="10.000000" fill="#ffdd55" stroke-width="0"/>
    <rect x="933.209334" y="0.000000" width="2.536354" height="10.000000" fill="#ffdd55" stroke-width="0"/>
    <rect x="935.745688" y="0.000000" width="2.536354" height="10.000000" fill="#ffdd55" stroke-width="0"/>
    <rect x="938.282043" y="0.000000" width="2.536354" height="10.000000" fill="#ffdd55" stroke-width="0"/>
    <rect x="940.818397" y="0.000000" width="2.113629" height="10.000000" fill="#d38d5f" stroke-width="0"/>
    <rect x="942.932026" y="0.000000" width="2.226356" height="10.000000" fill="#ffdd55" stroke-width="0"/>
    <rect x="945.158381" y="0.000000" width="2.254537" height="10.000000" fill="#ffdd55" stroke-width="0"/>
    <rect x="947.412918" y="0.000000" width="2.226356" height="10.000000" fill="#ffdd55" stroke-width="0"/>
    <rect x="949.639274" y="0.000000" width="2.254537" height="10.000000" fill="#ffdd55" stroke-width="0"/>
    <rect x="951.893811" y="0.000000" width="2.226356" height="10.000000" fill="#ffdd55" stroke-width="0"/>
    <rect x="954.120167" y="0.000000" width="2.254537" height="10.000000" fill="#ffdd55" stroke-width="0"/>
    <rect x="956.374704" y="0.000000" width="1.888175" height="10.000000" fill="#d38d5f" stroke-width="0"/>
    <rect x="958.262879" y="0.000000" width="1.944538" height="10.000000" fill="#ffdd55" stroke-width="0"/>
    <rect x="960.207417" y="0.000000" width="1.944538" height="10.000000" fill="#ffdd55" stroke-width="0"/>
    <rect x="962.151956" y="0.000000" width="1.944538" height="10.000000" fill="#ffdd55" stroke-width="0"/>
    <rect x="964.096494" y="0.000000" width="1.944538" height="10.000000" fill="#ffdd55" stroke-width="0"/>
    <rect x="966.041033" y="0.000000" width="1.944538" height="10.000000" fill="#ffdd55" stroke-width="0"/>
    <rect x="967.985571" y="0.000000" width="1.606358" height="10.000000" fill="#d38d5f" stroke-width="0"/>
    <rect x="969.591929" y="0.000000" width="1.634540" height="10.000000" fill="#ffdd55" stroke-width="0"/>
    <rect x="971.226468" y="0.000000" width="1.634540" height="10.000000" fill="#ffdd55" stroke-width="0"/>
    <rect x="972.861008" y="0.000000" width="1.662721" height="10.000000" fill="#ffdd55" stroke-width="0"/>
    <rect x="974.523729" y="0.000000" width="1.634540" height="10.000000" fill="#ffdd55" stroke-width="0"/>
    <rect x="976.158269" y="0.000000" width="1.352722" height="10.000000" fill="#d38d5f" stroke-width="0"/>
    <rect x="977.510991" y="0.000000" width="1.324541" height="10.000000" fill="#ffdd55" stroke-width="0"/>
    <rect x="978.835532" y="0.000000" width="1.324541" height="10.000000" fill="#ffdd55" stroke-width="0"/>
    <rect x="980.160072" y="0.000000" width="1.296359" height="10.000000" fill="#ffdd55" stroke-width="0"/>
    <rect x="981.456431" y="0.000000" width="1.099087" height="10.000000" fill="#d38d5f" stroke-width="0"/>
    <rect x="982.555518" y="0.000000" width="1.014542" height="10.000000" fill="#ffdd55" stroke-width="0"/>
    <rect x="983.570060" y="0.000000" width="1.014542" height="10.000000" fill="#ffdd55" stroke-width="0"/>
    <rect x="984.584602" y="0.000000" width="0.845451" height="10.000000" fill="#d38d5f" stroke-width="0"/>
    <rect x="985.430053" y="0.000000" width="0.676361" height="10.000000" fill="#ffdd55" stroke-width="0"/>
    <rect x="986.106414" y="0.000000" width="0.563634" height="10.000000" fill="#d38d5f" stroke-width="0"/>
    <rect x="986.670048" y="0.000000" width="13.329952" height="10.000000" fill="#8dd35f" stroke-width="0"/>
<line x1="0" y1="20.200000" x2="1020.000000" y2="20.200000"                      style="stroke:rgb(0,0,0);stroke-width:1"/>
<text x="1010.000000" y="8.000000" style="font-size:6pt">Thread 0</text>
<text x="0" y="28.000000" style="font-size:6pt">Time (usec.)</text>
<line x1="100.000000" y1="19.200000" x2="100.000000" y2="21.200000"                      style="stroke:rgb(0,0,0);stroke-width:0.5"/>
<text x="100.000000" y="27.200000" style="font-size:6pt"> 3548 </text>
<line x1="200.000000" y1="19.200000" x2="200.000000" y2="21.200000"                      style="stroke:rgb(0,0,0);stroke-width:0.5"/>
<text x="200.000000" y="27.200000" style="font-size:6pt"> 7097 </text>
<line x1="300.000000" y1="19.200000" x2="300.000000" y2="21.200000"                      style="stroke:rgb(0,0,0);stroke-width:0.5"/>
<text x="300.000000" y="27.200000" style="font-size:6pt"> 10645 </text>
<line x1="400.000000" y1="19.200000" x2="400.000000" y2="21.200000"                      style="stroke:rgb(0,0,0);stroke-width:0.5"/>
<text x="400.000000" y="27.200000" style="font-size:6pt"> 14194 </text>
<line x1="500.000000" y1="19.200000" x2="500.000000" y2="21.200000"                      style="stroke:rgb(0,0,0);stroke-width:0.5"/>
<text x="500.000000" y="27.200000" style="font-size:6pt"> 17742 </text>
<line x1="600.000000" y1="19.200000" x2="600.000000" y2="21.200000"                      style="stroke:rgb(0,0,0);stroke-width:0.5"/>
<text x="600.000000" y="27.200000" style="font-size:6pt"> 21290 </text>
<line x1="700.000000" y1="19.200000" x2="700.000000" y2="21.200000"                      style="stroke:rgb(0,0,0);stroke-width:0.5"/>
<text x="700.000000" y="27.200000" style="font-size:6pt"> 24839 </text>
<line x1="800.000000" y1="19.200000" x2="800.000000" y2="21.200000"                      style="stroke:rgb(0,0,0);stroke-width:0.5"/>
<text x="800.000000" y="27.200000" style="font-size:6pt"> 28387 </text>
<line x1="900.000000" y1="19.200000" x2="900.000000" y2="21.200000"                      style="stroke:rgb(0,0,0);stroke-width:0.5"/>
<text x="900.000000" y="27.200000" style="font-size:6pt"> 31936 </text>
<line x1="1000.000000" y1="19.200000" x2="1000.000000" y2="21.200000"                      style="stroke:rgb(0,0,0);stroke-width:0.5"/>
<text x="1000.000000" y="27.200000" style="font-size:6pt"> 35484 </text>
</svg>
