<svg x="-11" y="-8" width="1060.000000" height="60.500000">
    <rect x="21.396755" y="0.000000" width="20.999045" height="10.000000" fill="#ffdd55" stroke-width="0"/>
    <rect x="42.395800" y="0.000000" width="19.885460" height="10.000000" fill="#ffdd55" stroke-width="0"/>
    <rect x="62.281260" y="0.000000" width="20.442253" height="10.000000" fill="#ffdd55" stroke-width="0"/>
    <rect x="82.723513" y="0.000000" width="19.646834" height="10.000000" fill="#ffdd55" stroke-width="0"/>
    <rect x="102.370347" y="0.000000" width="19.805918" height="10.000000" fill="#ffdd55" stroke-width="0"/>
    <rect x="149.459115" y="0.000000" width="18.930958" height="10.000000" fill="#ffdd55" stroke-width="0"/>
    <rect x="168.390073" y="0.000000" width="18.771874" height="10.000000" fill="#ffdd55" stroke-width="0"/>
    <rect x="187.241489" y="0.000000" width="18.533248" height="10.000000" fill="#ffdd55" stroke-width="0"/>
    <rect x="205.774738" y="0.000000" width="18.294623" height="10.000000" fill="#ffdd55" stroke-width="0"/>
    <rect x="224.069360" y="0.000000" width="18.692332" height="10.000000" fill="#ffdd55" stroke-width="0"/>
    <rect x="258.192809" y="0.000000" width="17.181037" height="10.000000" fill="#ffdd55" stroke-width="0"/>
    <rect x="275.373847" y="0.000000" width="17.181037" height="10.000000" fill="#ffdd55" stroke-width="0"/>
    <rect x="292.554884" y="0.000000" width="17.021954" height="10.000000" fill="#ffdd55" stroke-width="0"/>
    <rect x="309.576837" y="0.000000" width="17.021954" height="10.000000" fill="#ffdd55" stroke-width="0"/>
    <rect x="326.598791" y="0.000000" width="17.101495" height="10.000000" fill="#ffdd55" stroke-width="0"/>
    <rect x="358.415527" y="0.000000" width="16.306077" height="10.000000" fill="#ffdd55" stroke-width="0"/>
    <rect x="374.721604" y="0.000000" width="17.340121" height="10.000000" fill="#ffdd55" stroke-width="0"/>
    <rect x="392.061724" y="0.000000" width="16.067451" height="10.000000" fill="#ffdd55" stroke-width="0"/>
    <rect x="408.129176" y="0.000000" width="16.226535" height="10.000000" fill="#ffdd55" stroke-width="0"/>
    <rect x="428.571429" y="0.000000" width="13.840280" height="10.000000" fill="#d38d5f" stroke-width="0"/>
    <rect x="442.411709" y="0.000000" width="15.192491" height="10.000000" fill="#ffdd55" stroke-width="0"/>
    <rect x="457.604200" y="0.000000" width="15.033408" height="10.000000" fill="#ffdd55" stroke-width="0"/>
    <rect x="472.637607" y="0.000000" width="15.033408" height="10.000000" fill="#ffdd55" stroke-width="0"/>
    <rect x="487.671015" y="0.000000" width="15.272033" height="10.000000" fill="#ffdd55" stroke-width="0"/>
    <rect x="503.181674" y="0.000000" width="12.726694" height="10.000000" fill="#d38d5f" stroke-width="0"/>
    <rect x="515.908368" y="0.000000" width="13.999364" height="10.000000" fill="#ffdd55" stroke-width="0"/>
    <rect x="529.907731" y="0.000000" width="13.999364" height="10.000000" fill="#ffdd55" stroke-width="0"/>
    <rect x="543.907095" y="0.000000" width="13.999364" height="10.000000" fill="#ffdd55" stroke-width="0"/>
    <rect x="557.906459" y="0.000000" width="14.237989" height="10.000000" fill="#ffdd55" stroke-width="0"/>
    <rect x="584.234808" y="0.000000" width="13.203945" height="10.000000" fill="#ffdd55" stroke-width="0"/>
    <rect x="597.438753" y="0.000000" width="13.203945" height="10.000000" fill="#ffdd55" stroke-width="0"/>
    <rect x="610.642698" y="0.000000" width="13.124403" height="10.000000" fill="#ffdd55" stroke-width="0"/>
    <rect x="623.767101" y="0.000000" width="13.283487" height="10.000000" fill="#ffdd55" stroke-width="0"/>
    <rect x="648.186446" y="0.000000" width="12.408527" height="10.000000" fill="#ffdd55" stroke-width="0"/>
    <rect x="660.594973" y="0.000000" width="12.249443" height="10.000000" fill="#ffdd55" stroke-width="0"/>
    <rect x="672.844416" y="0.000000" width="12.328985" height="10.000000" fill="#ffdd55" stroke-width="0"/>
    <rect x="740.136812" y="0.000000" width="13.919822" height="10.000000" fill="#ffdd55" stroke-width="0"/>
    <rect x="754.056634" y="0.000000" width="11.613108" height="10.000000" fill="#ffdd55" stroke-width="0"/>
    <rect x="765.669742" y="0.000000" width="11.533567" height="10.000000" fill="#ffdd55" stroke-width="0"/>
    <rect x="786.986955" y="0.000000" width="10.499523" height="10.000000" fill="#ffdd55" stroke-width="0"/>
    <rect x="797.486478" y="0.000000" width="10.419981" height="10.000000" fill="#ffdd55" stroke-width="0"/>
    <rect x="807.906459" y="0.000000" width="10.658606" height="10.000000" fill="#ffdd55" stroke-width="0"/>
    <rect x="818.803691" y="0.000000" width="8.829144" height="10.000000" fill="#d38d5f" stroke-width="0"/>
    <rect x="827.712377" y="0.000000" width="9.545021" height="10.000000" fill="#ffdd55" stroke-width="0"/>
    <rect x="837.257397" y="0.000000" width="9.545021" height="10.000000" fill="#ffdd55" stroke-width="0"/>
    <rect x="846.881960" y="0.000000" width="9.545021" height="10.000000" fill="#ffdd55" stroke-width="0"/>
    <rect x="864.460706" y="0.000000" width="8.590519" height="10.000000" fill="#ffdd55" stroke-width="0"/>
    <rect x="873.051225" y="0.000000" width="8.510977" height="10.000000" fill="#ffdd55" stroke-width="0"/>
    <rect x="881.641744" y="0.000000" width="7.238307" height="10.000000" fill="#d38d5f" stroke-width="0"/>
    <rect x="888.959593" y="0.000000" width="7.476933" height="10.000000" fill="#ffdd55" stroke-width="0"/>
    <rect x="896.436526" y="0.000000" width="7.636017" height="10.000000" fill="#ffdd55" stroke-width="0"/>
    <rect x="904.152084" y="0.000000" width="6.363347" height="10.000000" fill="#d38d5f" stroke-width="0"/>
    <rect x="910.515431" y="0.000000" width="6.681514" height="10.000000" fill="#ffdd55" stroke-width="0"/>
    <rect x="917.196946" y="0.000000" width="6.761056" height="10.000000" fill="#ffdd55" stroke-width="0"/>
    <rect x="929.764556" y="0.000000" width="5.806554" height="10.000000" fill="#ffdd55" stroke-width="0"/>
    <rect x="935.571110" y="0.000000" width="5.886096" height="10.000000" fill="#ffdd55" stroke-width="0"/>
    <rect x="946.388801" y="0.000000" width="4.931594" height="10.000000" fill="#ffdd55" stroke-width="0"/>
    <rect x="955.933821" y="0.000000" width="4.295259" height="10.000000" fill="#ffdd55" stroke-width="0"/>
    <rect x="963.808463" y="0.000000" width="3.499841" height="10.000000" fill="#ffdd55" stroke-width="0"/>
    <rect x="970.171810" y="0.000000" width="2.306713" height="10.000000" fill="#ffdd55" stroke-width="0"/>
    <rect x="974.467070" y="0.000000" width="25.532930" height="10.000000" fill="#8dd35f" stroke-width="0"/>
    <rect x="21.396755" y="10.000000" width="23.783010" height="10.000000" fill="#ffdd55" stroke-width="0"/>
    <rect x="45.179765" y="10.000000" width="19.726376" height="10.000000" fill="#ffdd55" stroke-width="0"/>
    <rect x="64.906141" y="10.000000" width="20.601336" height="10.000000" fill="#ffdd55" stroke-width="0"/>
    <rect x="85.507477" y="10.000000" width="19.646834" height="10.000000" fill="#ffdd55" stroke-width="0"/>
    <rect x="105.154311" y="10.000000" width="19.805918" height="10.000000" fill="#ffdd55" stroke-width="0"/>
    <rect x="149.379574" y="10.000000" width="19.010500" height="10.000000" fill="#ffdd55" stroke-width="0"/>
    <rect x="168.390073" y="10.000000" width="18.692332" height="10.000000" fill="#ffdd55" stroke-width="0"/>
    <rect x="187.082405" y="10.000000" width="18.374165" height="10.000000" fill="#ffdd55" stroke-width="0"/>
    <rect x="205.456570" y="10.000000" width="18.215081" height="10.000000" fill="#ffdd55" stroke-width="0"/>
    <rect x="223.671651" y="10.000000" width="18.533248" height="10.000000" fill="#ffdd55" stroke-width="0"/>
    <rect x="258.192809" y="10.000000" width="17.181037" height="10.000000" fill="#ffdd55" stroke-width="0"/>
    <rect x="275.453388" y="10.000000" width="17.101495" height="10.000000" fill="#ffdd55" stroke-width="0"/>
    <rect x="292.554884" y="10.000000" width="17.021954" height="10.000000" fill="#ffdd55" stroke-width="0"/>
    <rect x="309.576837" y="10.000000" width="16.942412" height="10.000000" fill="#ffdd55" stroke-width="0"/>
    <rect x="343.700286" y="10.000000" width="14.715240" height="10.000000" fill="#d38d5f" stroke-width="0"/>
    <rect x="358.495068" y="10.000000" width="16.226535" height="10.000000" fill="#ffdd55" stroke-width="0"/>
    <rect x="374.721604" y="10.000000" width="21.476297" height="10.000000" fill="#ffdd55" stroke-width="0"/>
    <rect x="396.197900" y="10.000000" width="16.226535" height="10.000000" fill="#ffdd55" stroke-width="0"/>
    <rect x="412.503977" y="10.000000" width="16.067451" height="10.000000" fill="#ffdd55" stroke-width="0"/>
    <rect x="442.411709" y="10.000000" width="15.272033" height="10.000000" fill="#ffdd55" stroke-width="0"/>
    <rect x="457.683742" y="10.000000" width="15.033408" height="10.000000" fill="#ffdd55" stroke-width="0"/>
    <rect x="472.796691" y="10.000000" width="15.033408" height="10.000000" fill="#ffdd55" stroke-width="0"/>
    <rect x="487.830099" y="10.000000" width="15.351575" height="10.000000" fill="#ffdd55" stroke-width="0"/>
    <rect x="515.908368" y="10.000000" width="14.158447" height="10.000000" fill="#ffdd55" stroke-width="0"/>
    <rect x="530.066815" y="10.000000" width="13.999364" height="10.000000" fill="#ffdd55" stroke-width="0"/>
    <rect x="544.066179" y="10.000000" width="13.999364" height="10.000000" fill="#ffdd55" stroke-width="0"/>
    <rect x="558.145084" y="10.000000" width="14.158447" height="10.000000" fill="#ffdd55" stroke-width="0"/>
    <rect x="584.234808" y="10.000000" width="13.203945" height="10.000000" fill="#ffdd55" stroke-width="0"/>
    <rect x="597.438753" y="10.000000" width="13.124403" height="10.000000" fill="#ffdd55" stroke-width="0"/>
    <rect x="610.563156" y="10.000000" width="13.124403" height="10.000000" fill="#ffdd55" stroke-width="0"/>
    <rect x="637.050589" y="10.000000" width="11.135857" height="10.000000" fill="#d38d5f" stroke-width="0"/>
    <rect x="648.186446" y="10.000000" width="12.328985" height="10.000000" fill="#ffdd55" stroke-width="0"/>
    <rect x="660.515431" y="10.000000" width="12.249443" height="10.000000" fill="#ffdd55" stroke-width="0"/>
    <rect x="672.764874" y="10.000000" width="12.249443" height="10.000000" fill="#ffdd55" stroke-width="0"/>
    <rect x="695.672924" y="10.000000" width="11.772192" height="10.000000" fill="#ffdd55" stroke-width="0"/>
    <rect x="707.445116" y="10.000000" width="11.374483" height="10.000000" fill="#ffdd55" stroke-width="0"/>
    <rect x="718.819599" y="10.000000" width="11.533567" height="10.000000" fill="#ffdd55" stroke-width="0"/>
    <rect x="786.986955" y="10.000000" width="10.658606" height="10.000000" fill="#ffdd55" stroke-width="0"/>
    <rect x="797.645562" y="10.000000" width="10.499523" height="10.000000" fill="#ffdd55" stroke-width="0"/>
    <rect x="808.145084" y="10.000000" width="10.579065" height="10.000000" fill="#ffdd55" stroke-width="0"/>
    <rect x="827.712377" y="10.000000" width="9.624563" height="10.000000" fill="#ffdd55" stroke-width="0"/>
    <rect x="837.336939" y="10.000000" width="9.545021" height="10.000000" fill="#ffdd55" stroke-width="0"/>
    <rect x="856.506522" y="10.000000" width="7.954184" height="10.000000" fill="#d38d5f" stroke-width="0"/>
    <rect x="864.540248" y="10.000000" width="8.510977" height="10.000000" fill="#ffdd55" stroke-width="0"/>
    <rect x="873.051225" y="10.000000" width="8.510977" height="10.000000" fill="#ffdd55" stroke-width="0"/>
    <rect x="888.880051" y="10.000000" width="7.636017" height="10.000000" fill="#ffdd55" stroke-width="0"/>
    <rect x="896.516067" y="10.000000" width="7.556475" height="10.000000" fill="#ffdd55" stroke-width="0"/>
    <rect x="910.515431" y="10.000000" width="6.681514" height="10.000000" fill="#ffdd55" stroke-width="0"/>
    <rect x="917.196946" y="10.000000" width="6.681514" height="10.000000" fill="#ffdd55" stroke-width="0"/>
    <rect x="923.958002" y="10.000000" width="5.806554" height="10.000000" fill="#d38d5f" stroke-width="0"/>
    <rect x="929.764556" y="10.000000" width="5.806554" height="10.000000" fill="#ffdd55" stroke-width="0"/>
    <rect x="941.457206" y="10.000000" width="4.931594" height="10.000000" fill="#d38d5f" stroke-width="0"/>
    <rect x="946.468342" y="10.000000" width="4.852052" height="10.000000" fill="#ffdd55" stroke-width="0"/>
    <rect x="955.933821" y="10.000000" width="4.295259" height="10.000000" fill="#ffdd55" stroke-width="0"/>
    <rect x="963.808463" y="10.000000" width="3.499841" height="10.000000" fill="#ffdd55" stroke-width="0"/>
    <rect x="972.558066" y="10.000000" width="1.829462" height="10.000000" fill="#d38d5f" stroke-width="0"/>
    <rect x="0.318167" y="20.000000" width="20.999045" height="10.000000" fill="#d38d5f" stroke-width="0"/>
    <rect x="21.396755" y="20.000000" width="20.521794" height="10.000000" fill="#ffdd55" stroke-width="0"/>
    <rect x="41.918549" y="20.000000" width="19.805918" height="10.000000" fill="#ffdd55" stroke-width="0"/>
    <rect x="61.724467" y="20.000000" width="31.498568" height="10.000000" fill="#ffdd55" stroke-width="0"/>
    <rect x="93.223035" y="20.000000" width="19.885460" height="10.000000" fill="#ffdd55" stroke-width="0"/>
    <rect x="113.108495" y="20.000000" width="19.726376" height="10.000000" fill="#ffdd55" stroke-width="0"/>
    <rect x="149.379574" y="20.000000" width="19.010500" height="10.000000" fill="#ffdd55" stroke-width="0"/>
    <rect x="168.390073" y="20.000000" width="18.692332" height="10.000000" fill="#ffdd55" stroke-width="0"/>
    <rect x="187.082405" y="20.000000" width="18.533248" height="10.000000" fill="#ffdd55" stroke-width="0"/>
    <rect x="205.615654" y="20.000000" width="18.215081" height="10.000000" fill="#ffdd55" stroke-width="0"/>
    <rect x="242.761693" y="20.000000" width="15.351575" height="10.000000" fill="#d38d5f" stroke-width="0"/>
    <rect x="258.192809" y="20.000000" width="17.260579" height="10.000000" fill="#ffdd55" stroke-width="0"/>
    <rect x="275.453388" y="20.000000" width="17.260579" height="10.000000" fill="#ffdd55" stroke-width="0"/>
    <rect x="292.713968" y="20.000000" width="17.101495" height="10.000000" fill="#ffdd55" stroke-width="0"/>
    <rect x="309.815463" y="20.000000" width="16.942412" height="10.000000" fill="#ffdd55" stroke-width="0"/>
    <rect x="358.415527" y="20.000000" width="16.306077" height="10.000000" fill="#ffdd55" stroke-width="0"/>
    <rect x="374.721604" y="20.000000" width="16.703786" height="10.000000" fill="#ffdd55" stroke-width="0"/>
    <rect x="391.425390" y="20.000000" width="16.146993" height="10.000000" fill="#ffdd55" stroke-width="0"/>
    <rect x="407.572383" y="20.000000" width="16.067451" height="10.000000" fill="#ffdd55" stroke-width="0"/>
    <rect x="442.411709" y="20.000000" width="15.192491" height="10.000000" fill="#ffdd55" stroke-width="0"/>
    <rect x="457.683742" y="20.000000" width="15.033408" height="10.000000" fill="#ffdd55" stroke-width="0"/>
    <rect x="472.717149" y="20.000000" width="15.033408" height="10.000000" fill="#ffdd55" stroke-width="0"/>
    <rect x="487.830099" y="20.000000" width="15.272033" height="10.000000" fill="#ffdd55" stroke-width="0"/>
    <rect x="515.908368" y="20.000000" width="14.158447" height="10.000000" fill="#ffdd55" stroke-width="0"/>
    <rect x="530.066815" y="20.000000" width="13.999364" height="10.000000" fill="#ffdd55" stroke-width="0"/>
    <rect x="544.066179" y="20.000000" width="13.999364" height="10.000000" fill="#ffdd55" stroke-width="0"/>
    <rect x="572.303532" y="20.000000" width="11.851734" height="10.000000" fill="#d38d5f" stroke-width="0"/>
    <rect x="584.234808" y="20.000000" width="13.203945" height="10.000000" fill="#ffdd55" stroke-width="0"/>
    <rect x="597.438753" y="20.000000" width="13.124403" height="10.000000" fill="#ffdd55" stroke-width="0"/>
    <rect x="610.563156" y="20.000000" width="13.124403" height="10.000000" fill="#ffdd55" stroke-width="0"/>
    <rect x="648.186446" y="20.000000" width="12.408527" height="10.000000" fill="#ffdd55" stroke-width="0"/>
    <rect x="660.594973" y="20.000000" width="12.249443" height="10.000000" fill="#ffdd55" stroke-width="0"/>
    <rect x="672.844416" y="20.000000" width="12.249443" height="10.000000" fill="#ffdd55" stroke-width="0"/>
    <rect x="685.412027" y="20.000000" width="10.260897" height="10.000000" fill="#d38d5f" stroke-width="0"/>
    <rect x="695.752466" y="20.000000" width="11.692650" height="10.000000" fill="#ffdd55" stroke-width="0"/>
    <rect x="707.445116" y="20.000000" width="11.374483" height="10.000000" fill="#ffdd55" stroke-width="0"/>
    <rect x="718.819599" y="20.000000" width="11.533567" height="10.000000" fill="#ffdd55" stroke-width="0"/>
    <rect x="777.282851" y="20.000000" width="9.704104" height="10.000000" fill="#d38d5f" stroke-width="0"/>
    <rect x="787.066497" y="20.000000" width="10.579065" height="10.000000" fill="#ffdd55" stroke-width="0"/>
    <rect x="797.645562" y="20.000000" width="10.419981" height="10.000000" fill="#ffdd55" stroke-width="0"/>
    <rect x="827.712377" y="20.000000" width="9.624563" height="10.000000" fill="#ffdd55" stroke-width="0"/>
    <rect x="837.336939" y="20.000000" width="9.545021" height="10.000000" fill="#ffdd55" stroke-width="0"/>
    <rect x="864.460706" y="20.000000" width="8.590519" height="10.000000" fill="#ffdd55" stroke-width="0"/>
    <rect x="873.051225" y="20.000000" width="8.510977" height="10.000000" fill="#ffdd55" stroke-width="0"/>
    <rect x="888.880051" y="20.000000" width="7.556475" height="10.000000" fill="#ffdd55" stroke-width="0"/>
    <rect x="896.516067" y="20.000000" width="7.556475" height="10.000000" fill="#ffdd55" stroke-width="0"/>
    <rect x="910.515431" y="20.000000" width="6.681514" height="10.000000" fill="#ffdd55" stroke-width="0"/>
    <rect x="929.764556" y="20.000000" width="5.806554" height="10.000000" fill="#ffdd55" stroke-width="0"/>
    <rect x="946.388801" y="20.000000" width="4.931594" height="10.000000" fill="#ffdd55" stroke-width="0"/>
    <rect x="955.933821" y="20.000000" width="4.215717" height="10.000000" fill="#ffdd55" stroke-width="0"/>
    <rect x="967.387846" y="20.000000" width="2.704423" height="10.000000" fill="#d38d5f" stroke-width="0"/>
    <rect x="21.396755" y="30.000000" width="23.703468" height="10.000000" fill="#ffdd55" stroke-width="0"/>
    <rect x="45.179765" y="30.000000" width="19.726376" height="10.000000" fill="#ffdd55" stroke-width="0"/>
    <rect x="64.906141" y="30.000000" width="24.657970" height="10.000000" fill="#ffdd55" stroke-width="0"/>
    <rect x="89.564111" y="30.000000" width="19.885460" height="10.000000" fill="#ffdd55" stroke-width="0"/>
    <rect x="132.834871" y="30.000000" width="16.544703" height="10.000000" fill="#d38d5f" stroke-width="0"/>
    <rect x="149.459115" y="30.000000" width="18.930958" height="10.000000" fill="#ffdd55" stroke-width="0"/>
    <rect x="168.390073" y="30.000000" width="18.851416" height="10.000000" fill="#ffdd55" stroke-width="0"/>
    <rect x="187.241489" y="30.000000" width="18.533248" height="10.000000" fill="#ffdd55" stroke-width="0"/>
    <rect x="205.774738" y="30.000000" width="18.374165" height="10.000000" fill="#ffdd55" stroke-width="0"/>
    <rect x="258.192809" y="30.000000" width="17.260579" height="10.000000" fill="#ffdd55" stroke-width="0"/>
    <rect x="275.453388" y="30.000000" width="17.181037" height="10.000000" fill="#ffdd55" stroke-width="0"/>
    <rect x="292.634426" y="30.000000" width="17.181037" height="10.000000" fill="#ffdd55" stroke-width="0"/>
    <rect x="309.815463" y="30.000000" width="17.021954" height="10.000000" fill="#ffdd55" stroke-width="0"/>
    <rect x="358.415527" y="30.000000" width="16.306077" height="10.000000" fill="#ffdd55" stroke-width="0"/>
    <rect x="374.721604" y="30.000000" width="17.260579" height="10.000000" fill="#ffdd55" stroke-width="0"/>
    <rect x="392.061724" y="30.000000" width="16.067451" height="10.000000" fill="#ffdd55" stroke-width="0"/>
    <rect x="408.129176" y="30.000000" width="16.226535" height="10.000000" fill="#ffdd55" stroke-width="0"/>
    <rect x="442.411709" y="30.000000" width="15.272033" height="10.000000" fill="#ffdd55" stroke-width="0"/>
    <rect x="457.683742" y="30.000000" width="15.033408" height="10.000000" fill="#ffdd55" stroke-width="0"/>
    <rect x="472.796691" y="30.000000" width="15.033408" height="10.000000" fill="#ffdd55" stroke-width="0"/>
    <rect x="515.908368" y="30.000000" width="14.158447" height="10.000000" fill="#ffdd55" stroke-width="0"/>
    <rect x="530.066815" y="30.000000" width="13.999364" height="10.000000" fill="#ffdd55" stroke-width="0"/>
    <rect x="544.066179" y="30.000000" width="14.158447" height="10.000000" fill="#ffdd55" stroke-width="0"/>
    <rect x="584.234808" y="30.000000" width="13.203945" height="10.000000" fill="#ffdd55" stroke-width="0"/>
    <rect x="597.438753" y="30.000000" width="13.203945" height="10.000000" fill="#ffdd55" stroke-width="0"/>
    <rect x="610.642698" y="30.000000" width="13.203945" height="10.000000" fill="#ffdd55" stroke-width="0"/>
    <rect x="648.186446" y="30.000000" width="12.408527" height="10.000000" fill="#ffdd55" stroke-width="0"/>
    <rect x="660.594973" y="30.000000" width="12.249443" height="10.000000" fill="#ffdd55" stroke-width="0"/>
    <rect x="672.844416" y="30.000000" width="12.567611" height="10.000000" fill="#ffdd55" stroke-width="0"/>
    <rect x="695.672924" y="30.000000" width="12.249443" height="10.000000" fill="#ffdd55" stroke-width="0"/>
    <rect x="707.922367" y="30.000000" width="11.454025" height="10.000000" fill="#ffdd55" stroke-width="0"/>
    <rect x="786.986955" y="30.000000" width="10.738148" height="10.000000" fill="#ffdd55" stroke-width="0"/>
    <rect x="797.725103" y="30.000000" width="10.579065" height="10.000000" fill="#ffdd55" stroke-width="0"/>
    <rect x="827.712377" y="30.000000" width="9.624563" height="10.000000" fill="#ffdd55" stroke-width="0"/>
    <rect x="837.336939" y="30.000000" width="9.545021" height="10.000000" fill="#ffdd55" stroke-width="0"/>
    <rect x="864.460706" y="30.000000" width="8.590519" height="10.000000" fill="#ffdd55" stroke-width="0"/>
    <rect x="873.051225" y="30.000000" width="8.590519" height="10.000000" fill="#ffdd55" stroke-width="0"/>
    <rect x="888.880051" y="30.000000" width="7.556475" height="10.000000" fill="#ffdd55" stroke-width="0"/>
    <rect x="910.515431" y="30.000000" width="6.681514" height="10.000000" fill="#ffdd55" stroke-width="0"/>
    <rect x="929.764556" y="30.000000" width="5.806554" height="10.000000" fill="#ffdd55" stroke-width="0"/>
    <rect x="946.388801" y="30.000000" width="4.931594" height="10.000000" fill="#ffdd55" stroke-width="0"/>
    <rect x="951.399936" y="30.000000" width="4.533885" height="10.000000" fill="#d38d5f" stroke-width="0"/>
    <rect x="960.229080" y="30.000000" width="3.579383" height="10.000000" fill="#d38d5f" stroke-width="0"/>
<line x1="0" y1="50.500000" x2="1020.000000" y2="50.500000"                      style="stroke:rgb(0,0,0);stroke-width:1"/>
<text x="1010.000000" y="8.000000" style="font-size:6pt">Thread 0</text>
<text x="1010.000000" y="18.000000" style="font-size:6pt">Thread 1</text>
<text x="1010.000000" y="28.000000" style="font-size:6pt">Thread 2</text>
<text x="1010.000000" y="38.000000" style="font-size:6pt">Thread 3</text>
<text x="0" y="59.500000" style="font-size:6pt">Time (usec.)</text>
<line x1="100.000000" y1="49.500000" x2="100.000000" y2="51.500000"                      style="stroke:rgb(0,0,0);stroke-width:0.5"/>
<text x="100.000000" y="57.500000" style="font-size:6pt"> 1257 </text>
<line x1="200.000000" y1="49.500000" x2="200.000000" y2="51.500000"                      style="stroke:rgb(0,0,0);stroke-width:0.5"/>
<text x="200.000000" y="57.500000" style="font-size:6pt"> 2514 </text>
<line x1="300.000000" y1="49.500000" x2="300.000000" y2="51.500000"                      style="stroke:rgb(0,0,0);stroke-width:0.5"/>
<text x="300.000000" y="57.500000" style="font-size:6pt"> 3772 </text>
<line x1="400.000000" y1="49.500000" x2="400.000000" y2="51.500000"                      style="stroke:rgb(0,0,0);stroke-width:0.5"/>
<text x="400.000000" y="57.500000" style="font-size:6pt"> 5029 </text>
<line x1="500.000000" y1="49.500000" x2="500.000000" y2="51.500000"                      style="stroke:rgb(0,0,0);stroke-width:0.5"/>
<text x="500.000000" y="57.500000" style="font-size:6pt"> 6286 </text>
<line x1="600.000000" y1="49.500000" x2="600.000000" y2="51.500000"                      style="stroke:rgb(0,0,0);stroke-width:0.5"/>
<text x="600.000000" y="57.500000" style="font-size:6pt"> 7543 </text>
<line x1="700.000000" y1="49.500000" x2="700.000000" y2="51.500000"                      style="stroke:rgb(0,0,0);stroke-width:0.5"/>
<text x="700.000000" y="57.500000" style="font-size:6pt"> 8800 </text>
<line x1="800.000000" y1="49.500000" x2="800.000000" y2="51.500000"                      style="stroke:rgb(0,0,0);stroke-width:0.5"/>
<text x="800.000000" y="57.500000" style="font-size:6pt"> 10058 </text>
<line x1="900.000000" y1="49.500000" x2="900.000000" y2="51.500000"                      style="stroke:rgb(0,0,0);stroke-width:0.5"/>
<text x="900.000000" y="57.500000" style="font-size:6pt"> 11315 </text>
<line x1="1000.000000" y1="49.500000" x2="1000.000000" y2="51.500000"                      style="stroke:rgb(0,0,0);stroke-width:0.5"/>
<text x="1000.000000" y="57.500000" style="font-size:6pt"> 12572 </text>
</svg>
