<svg x="-11" y="-8" width="1060.000000" height="29.000000">
    <rect x="18.181818" y="0.000000" width="136.363636" height="10.000000" fill="#d38d5f" stroke-width="0"/>
    <rect x="154.545455" y="0.000000" width="154.545455" height="10.000000" fill="#ffdd55" stroke-width="0"/>
    <rect x="309.090909" y="0.000000" width="9.090909" height="10.000000" fill="#d38d5f" stroke-width="0"/>
    <rect x="318.181818" y="0.000000" width="681.818182" height="10.000000" fill="#8dd35f" stroke-width="0"/>
<line x1="0" y1="20.200000" x2="1020.000000" y2="20.200000"                      style="stroke:rgb(0,0,0);stroke-width:1"/>
<text x="1010.000000" y="8.000000" style="font-size:6pt">Thread 0</text>
<text x="0" y="28.000000" style="font-size:6pt">Time (usec.)</text>
<line x1="100.000000" y1="19.200000" x2="100.000000" y2="21.200000"                      style="stroke:rgb(0,0,0);stroke-width:0.5"/>
<text x="100.000000" y="27.200000" style="font-size:6pt"> 11 </text>
<line x1="200.000000" y1="19.200000" x2="200.000000" y2="21.200000"                      style="stroke:rgb(0,0,0);stroke-width:0.5"/>
<text x="200.000000" y="27.200000" style="font-size:6pt"> 22 </text>
<line x1="300.000000" y1="19.200000" x2="300.000000" y2="21.200000"                      style="stroke:rgb(0,0,0);stroke-width:0.5"/>
<text x="300.000000" y="27.200000" style="font-size:6pt"> 33 </text>
<line x1="400.000000" y1="19.200000" x2="400.000000" y2="21.200000"                      style="stroke:rgb(0,0,0);stroke-width:0.5"/>
<text x="400.000000" y="27.200000" style="font-size:6pt"> 44 </text>
<line x1="500.000000" y1="19.200000" x2="500.000000" y2="21.200000"                      style="stroke:rgb(0,0,0);stroke-width:0.5"/>
<text x="500.000000" y="27.200000" style="font-size:6pt"> 55 </text>
<line x1="600.000000" y1="19.200000" x2="600.000000" y2="21.200000"                      style="stroke:rgb(0,0,0);stroke-width:0.5"/>
<text x="600.000000" y="27.200000" style="font-size:6pt"> 66 </text>
<line x1="700.000000" y1="19.200000" x2="700.000000" y2="21.200000"                      style="stroke:rgb(0,0,0);stroke-width:0.5"/>
<text x="700.000000" y="27.200000" style="font-size:6pt"> 77 </text>
<line x1="800.000000" y1="19.200000" x2="800.000000" y2="21.200000"                      style="stroke:rgb(0,0,0);stroke-width:0.5"/>
<text x="800.000000" y="27.200000" style="font-size:6pt"> 88 </text>
<line x1="900.000000" y1="19.200000" x2="900.000000" y2="21.200000"                      style="stroke:rgb(0,0,0);stroke-width:0.5"/>
<text x="900.000000" y="27.200000" style="font-size:6pt"> 99 </text>
<line x1="1000.000000" y1="19.200000" x2="1000.000000" y2="21.200000"                      style="stroke:rgb(0,0,0);stroke-width:0.5"/>
<text x="1000.000000" y="27.200000" style="font-size:6pt"> 110 </text>
</svg>
