<svg x="-11" y="-8" width="1060.000000" height="60.500000">
    <rect x="473.684211" y="0.000000" width="315.789474" height="10.000000" fill="#ffdd55" stroke-width="0"/>
    <rect x="894.736842" y="0.000000" width="105.263158" height="10.000000" fill="#8dd35f" stroke-width="0"/>
    <rect x="52.631579" y="30.000000" width="421.052632" height="10.000000" fill="#d38d5f" stroke-width="0"/>
    <rect x="789.473684" y="30.000000" width="52.631579" height="10.000000" fill="#d38d5f" stroke-width="0"/>
<line x1="0" y1="50.500000" x2="1020.000000" y2="50.500000"                      style="stroke:rgb(0,0,0);stroke-width:1"/>
<text x="1010.000000" y="8.000000" style="font-size:6pt">Thread 0</text>
<text x="1010.000000" y="18.000000" style="font-size:6pt">Thread 1</text>
<text x="1010.000000" y="28.000000" style="font-size:6pt">Thread 2</text>
<text x="1010.000000" y="38.000000" style="font-size:6pt">Thread 3</text>
<text x="0" y="59.500000" style="font-size:6pt">Time (usec.)</text>
<line x1="100.000000" y1="49.500000" x2="100.000000" y2="51.500000"                      style="stroke:rgb(0,0,0);stroke-width:0.5"/>
<text x="100.000000" y="57.500000" style="font-size:6pt"> 2 </text>
<line x1="200.000000" y1="49.500000" x2="200.000000" y2="51.500000"                      style="stroke:rgb(0,0,0);stroke-width:0.5"/>
<text x="200.000000" y="57.500000" style="font-size:6pt"> 4 </text>
<line x1="300.000000" y1="49.500000" x2="300.000000" y2="51.500000"                      style="stroke:rgb(0,0,0);stroke-width:0.5"/>
<text x="300.000000" y="57.500000" style="font-size:6pt"> 6 </text>
<line x1="400.000000" y1="49.500000" x2="400.000000" y2="51.500000"                      style="stroke:rgb(0,0,0);stroke-width:0.5"/>
<text x="400.000000" y="57.500000" style="font-size:6pt"> 8 </text>
<line x1="500.000000" y1="49.500000" x2="500.000000" y2="51.500000"                      style="stroke:rgb(0,0,0);stroke-width:0.5"/>
<text x="500.000000" y="57.500000" style="font-size:6pt"> 10 </text>
<line x1="600.000000" y1="49.500000" x2="600.000000" y2="51.500000"                      style="stroke:rgb(0,0,0);stroke-width:0.5"/>
<text x="600.000000" y="57.500000" style="font-size:6pt"> 11 </text>
<line x1="700.000000" y1="49.500000" x2="700.000000" y2="51.500000"                      style="stroke:rgb(0,0,0);stroke-width:0.5"/>
<text x="700.000000" y="57.500000" style="font-size:6pt"> 13 </text>
<line x1="800.000000" y1="49.500000" x2="800.000000" y2="51.500000"                      style="stroke:rgb(0,0,0);stroke-width:0.5"/>
<text x="800.000000" y="57.500000" style="font-size:6pt"> 15 </text>
<line x1="900.000000" y1="49.500000" x2="900.000000" y2="51.500000"                      style="stroke:rgb(0,0,0);stroke-width:0.5"/>
<text x="900.000000" y="57.500000" style="font-size:6pt"> 17 </text>
<line x1="1000.000000" y1="49.500000" x2="1000.000000" y2="51.500000"                      style="stroke:rgb(0,0,0);stroke-width:0.5"/>
<text x="1000.000000" y="57.500000" style="font-size:6pt"> 19 </text>
</svg>
